<?xml version="1.0" encoding="utf-8"?>
<!-- Generator: Adobe Illustrator 24.0.0, SVG Export Plug-In . SVG Version: 6.00 Build 0)  -->
<svg version="1.1" id="Warstwa_1" xmlns="http://www.w3.org/2000/svg" xmlns:xlink="http://www.w3.org/1999/xlink" x="0px" y="0px"
	 viewBox="0 0 300 300" style="enable-background:new 0 0 300 300;" xml:space="preserve">
<style type="text/css">
	.st0{fill:#FFCD9F;stroke:#000000;stroke-miterlimit:10;}
	.st1{fill:none;stroke:#000000;stroke-miterlimit:10;}
	.st2{fill:#808080;stroke:#000000;stroke-miterlimit:10;}
	.st3{fill:#ED1C24;stroke:#ED1C24;stroke-miterlimit:10;}
	.st4{fill:#5F99FF;stroke:#000000;stroke-miterlimit:10;}
</style>
<circle class="st0" cx="150" cy="55" r="29.9"/>
<line class="st1" x1="101.9" y1="89.7" x2="62.9" y2="197"/>
<line class="st1" x1="170.7" y1="196.1" x2="185.4" y2="293.6"/>
<line class="st1" x1="177.9" y1="322.2" x2="176.4" y2="322.5"/>
<path class="st2" d="M170.2,196.1c-13.2,0.1-26.3,0.2-39.5,0.3c-9.8-35.6-19.5-71.1-29.3-106.7h97.2
	C189.1,125.2,179.7,160.6,170.2,196.1z"/>
<line class="st1" x1="130.7" y1="196.1" x2="116" y2="293.6"/>
<line class="st1" x1="198.6" y1="89.5" x2="237.6" y2="196.7"/>
<polygon class="st3" points="180.6,136.9 165,136.9 176,125.8 167.2,117 156.2,128.1 156.2,112.5 143.8,112.5 143.8,128.1 
	132.8,117 124,125.8 135,136.9 119.4,136.9 119.4,149.3 135,149.3 124,160.3 132.8,169.1 143.8,158.1 143.8,173.7 156.2,173.7 
	156.2,158.1 167.2,169.1 176,160.3 165,149.3 180.6,149.3 "/>
<ellipse class="st4" cx="159.8" cy="49.5" rx="3.4" ry="5.5"/>
<ellipse class="st4" cx="141.6" cy="49.5" rx="3.4" ry="5.5"/>
</svg>
