<?xml version="1.0" encoding="utf-8"?>
<!-- Generator: Adobe Illustrator 24.0.0, SVG Export Plug-In . SVG Version: 6.00 Build 0)  -->
<svg version="1.1" id="Warstwa_1" xmlns="http://www.w3.org/2000/svg" xmlns:xlink="http://www.w3.org/1999/xlink" x="0px" y="0px"
	 viewBox="0 0 300 300" style="enable-background:new 0 0 300 300;" xml:space="preserve">
<style type="text/css">
	.st0{fill:#FFB03F;stroke:#000000;stroke-miterlimit:10;}
	.st1{fill:#E2170C;stroke:#E2170C;stroke-miterlimit:10;}
</style>
<path class="st0" d="M289.94,61.23c-0.78-9.96-5.04-18.62-11.7-23.75c-6.54-5.04-15.59-6.92-26.15-5.45
	c-7.72,1.08-14.29,4.01-20.65,6.84c-0.49,0.22-0.98,0.44-1.46,0.65V28.35H73.25V41c-1.58-0.68-3.16-1.39-4.77-2.13
	c-6.23-2.83-12.68-5.76-20.24-6.84c-10.36-1.47-19.23,0.41-25.64,5.45c-6.53,5.13-10.71,13.79-11.47,23.75
	C10.03,75.64,16,91.1,27.51,103.65c9.88,10.77,22.01,18.08,33.75,25.16l19.15,11.54c8.84,17.03,25.22,30.37,45.33,36.63
	c2.76,9.74,4.99,21.56,5.26,35.03c0.38,19.28-3.38,35.44-7.36,47.23c-21.48,1.46-36.39,4.66-36.39,8.38c0,5.1,27.98,9.23,62.5,9.23
	s62.5-4.13,62.5-9.23c0-3.64-14.3-6.79-35.06-8.29c-3.56-11.99-6.71-27.69-6.53-46.12c0.13-13.5,2.02-25.47,4.48-35.53
	c22.35-6.25,40.39-21.17,49.13-40.29l14.55-8.6c11.97-7.07,24.35-14.39,34.43-25.16C284.97,91.1,291.06,75.64,289.94,61.23z
	 M67.05,118.12c-11.03-6.65-22.34-13.61-31.15-23.03c-9.12-9.74-13.8-21.27-13.14-32.88c0.36-6.35,3.03-11.9,6.81-14.87
	c4.94-3.89,12.03-3.84,17.1-3.12c5.98,0.85,11.42,3.32,17.19,5.94c3.03,1.38,6.13,2.78,9.4,3.99v61.54h0.17
	c0.16,2.29,0.44,4.55,0.84,6.77L67.05,118.12z M264.68,95.1c-8.9,9.51-20.53,16.38-31.78,23.03l-3.58,2.12
	c0.22-1.5,0.39-3.01,0.49-4.54h0.17V52.84c2.1-0.86,4.16-1.77,6.18-2.67c5.88-2.62,11.43-5.09,17.53-5.94
	c5.17-0.73,12.4-0.77,17.44,3.12c3.86,2.97,6.46,8.53,6.95,14.87C278.92,73.1,274.04,85.09,264.68,95.1z"/>
<polygon class="st1" points="199.71,82.25 176.55,82.25 192.93,64.89 177.69,48.75 161.31,66.1 161.31,41.56 139.76,41.56 
	139.76,66.1 123.38,48.75 108.14,64.89 124.53,82.25 101.36,82.25 101.36,105.08 124.53,105.08 108.14,122.44 123.38,138.59 
	139.76,121.23 139.76,145.78 161.31,145.78 161.31,121.23 177.69,138.59 192.93,122.44 176.55,105.08 199.71,105.08 "/>
</svg>
