<?xml version="1.0" encoding="utf-8"?>
<!-- Generator: Adobe Illustrator 24.0.0, SVG Export Plug-In . SVG Version: 6.00 Build 0)  -->
<svg version="1.1" id="Warstwa_1" xmlns="http://www.w3.org/2000/svg" xmlns:xlink="http://www.w3.org/1999/xlink" x="0px" y="0px"
	 viewBox="0 0 200 200" style="enable-background:new 0 0 200 200;" xml:space="preserve">
<style type="text/css">
	.st0{fill:#B3B3B3;stroke:#000000;stroke-width:3;stroke-miterlimit:10;}
	.st1{fill:#FF0000;stroke:#FF0000;stroke-width:3;stroke-miterlimit:10;}
	.st2{fill:#FF00FF;stroke:#FF00FF;stroke-width:3;stroke-miterlimit:10;}
	.st3{fill:#65C8D0;stroke:#65C8D0;stroke-width:3;stroke-miterlimit:10;}
	.st4{fill:#39B54A;stroke:#39B54A;stroke-width:3;stroke-miterlimit:10;}
	.st5{fill:#FFFF00;stroke:#FFFF00;stroke-width:3;stroke-miterlimit:10;}
	.st6{fill:none;stroke:#F2F2F2;stroke-width:0.75;stroke-miterlimit:10;}
	.st7{fill:#FFFFFF;stroke:#F2F2F2;stroke-width:0.75;stroke-miterlimit:10;}
	.st8{fill:none;stroke:#FFFFFF;stroke-width:0.75;stroke-miterlimit:10;}
	.st9{fill:#FFFFFF;stroke:#FFFFFF;stroke-width:0.75;stroke-miterlimit:10;}
	.st10{fill:#FFFFFF;}
	.st11{font-family:'MyriadPro-Regular';}
	.st12{font-size:7.053px;}
	.st13{fill:#4D4D4D;stroke:#4D4D4D;stroke-miterlimit:10;}
</style>
<path class="st0" d="M138.3,189.8H61.7c-5.5,0-10-4.5-10-10V17.7c0-5.5,4.5-10,10-10h76.6c5.5,0,10,4.5,10,10v162.1
	C148.4,185.3,143.9,189.8,138.3,189.8z"/>
<polygon class="st1" points="137.3,91.3 116.8,91.3 131.3,76.8 122.2,67.7 107.6,82.2 107.6,61.6 94.7,61.6 94.7,82.2 80.2,67.7 
	71.1,76.8 85.6,91.3 65.1,91.3 65.1,104.2 85.6,104.2 71.1,118.8 80.2,127.9 94.7,113.3 94.7,133.9 107.6,133.9 107.6,113.3 
	122.2,127.9 131.3,118.8 116.8,104.2 137.3,104.2 "/>
<path class="st2" d="M70.8,168.1h-10c-2,0-3.7-1.6-3.7-3.7v-10c0-2,1.6-3.7,3.7-3.7h10c2,0,3.7,1.6,3.7,3.7v10
	C74.5,166.5,72.9,168.1,70.8,168.1z"/>
<path class="st3" d="M94,168.1H83.3c-1.8,0-3.3-1.5-3.3-3.3v-10.7c0-1.8,1.5-3.3,3.3-3.3H94c1.8,0,3.3,1.5,3.3,3.3v10.7
	C97.3,166.6,95.8,168.1,94,168.1z"/>
<path d="M140.1,22.6H60.2c-13.9,0-6.8-3-6.8-6.8v-3.3c0-2,1.6-3.5,3.5-3.5h86.5c2,0,3.5,1.6,3.5,3.5v3.3
	C146.9,19.5,152.5,22.6,140.1,22.6z"/>
<path class="st4" d="M116.7,168.1h-10c-2,0-3.7-1.6-3.7-3.7v-10c0-2,1.6-3.7,3.7-3.7h10c2,0,3.7,1.6,3.7,3.7v10
	C120.3,166.5,118.7,168.1,116.7,168.1z"/>
<path class="st5" d="M139.7,168.1h-10c-2,0-3.7-1.6-3.7-3.7v-10c0-2,1.6-3.7,3.7-3.7h10c2,0,3.7,1.6,3.7,3.7v10
	C143.3,166.5,141.7,168.1,139.7,168.1z"/>
<rect x="113.6" y="179" class="st6" width="7.2" height="7.2"/>
<polygon class="st6" points="78.8,185.8 73,182.4 73,182.4 78.8,179 "/>
<circle class="st6" cx="96.2" cy="182.6" r="3.6"/>
<path class="st7" d="M136.5,43.3H63.5c-3.7,0-6.6-3-6.6-6.6v-0.3c0-3.7,3-6.6,6.6-6.6h72.9c3.7,0,6.6,3,6.6,6.6v0.3
	C143.1,40.3,140.1,43.3,136.5,43.3z"/>
<rect x="111.7" y="13.2" class="st8" width="12.4" height="6"/>
<rect x="111.7" y="13.2" class="st9" width="6" height="6"/>
<rect x="124.5" y="14.9" class="st9" width="1.5" height="3"/>
<rect x="73.7" y="17.9" class="st10" width="1.4" height="1.4"/>
<rect x="75.9" y="15.8" class="st10" width="2" height="3.4"/>
<rect x="78.7" y="12.9" class="st10" width="1.9" height="6.3"/>
<text transform="matrix(1.088 0 0 1 129.4443 18.5388)" class="st10 st11 st12">00:00</text>
<circle class="st13" cx="62.9" cy="17.8" r="3"/>
<rect x="81.3" y="10.9" transform="matrix(-1 -1.224647e-16 1.224647e-16 -1 164.4655 30.1667)" class="st10" width="1.8" height="8.3"/>
</svg>
